# xmcd CD database file generated by Grip 2.94
# 
# Track frame offsets:
#       150
#       10632
#       19812
#       34150
#       43715
#       57945
#       68492
#       82605
#       94867
#       106945
#       121647
#       134107
#       150115
#       160242
#       172397
#       183177
# 
# Disc length: 2592 seconds
# 
# Revision: 3
# Processed by: cddbd v1.4b41PL1 Copyright (c) Steve Scherf et al.
# Submitted via: Grip 2.94
# 
DISCID=bc0a1e10
DTITLE=Memphis Slim - At The Gate of Horn
DYEAR=1900
DGENRE=
TTITLE0=The Come Back
TTITLE1=Steppin' Out
TTITLE2=Blue and Lonesome
TTITLE3=Rockin' The House
TTITLE4=Slim's Blues
TTITLE5=Gotta Find My Baby
TTITLE6=Messin' Around
TTITLE7=Wish Me Well
TTITLE8=My Gal Keeps Me Crying
TTITLE9=Lend Me Your Love
TTITLE10=Sassy Mae
TTITLE11=Mother Earth
TTITLE12=Guitar Cha Cha
TTITLE13=Stroll On Little Girl
TTITLE14=What's The Matter
TTITLE15=This Time I'm Through
EXTD=
EXTT0=
EXTT1=
EXTT2=
EXTT3=
EXTT4=
EXTT5=
EXTT6=
EXTT7=
EXTT8=
EXTT9=
EXTT10=
EXTT11=
EXTT12=
EXTT13=
EXTT14=
EXTT15=
PLAYORDER=
